<?xml version="1.0" standalone="no"?>
<!DOCTYPE svg PUBLIC "-//W3C//DTD SVG 20010904//EN"
 "http://www.w3.org/TR/2001/REC-SVG-20010904/DTD/svg10.dtd">
<svg version="1.0" xmlns="http://www.w3.org/2000/svg"
 width="512.000000pt" height="512.000000pt" viewBox="0 0 512.000000 512.000000"
 preserveAspectRatio="xMidYMid meet">

<g transform="translate(0.000000,512.000000) scale(0.100000,-0.100000)"
fill="#000000" stroke="none">
<path d="M2470 4635 c-103 -29 -176 -89 -228 -189 -24 -46 -27 -62 -27 -151 0
-84 4 -107 24 -147 37 -75 95 -134 169 -170 60 -30 75 -33 152 -33 70 0 95 5
141 27 76 35 129 85 170 160 32 60 34 68 34 163 0 91 -3 105 -29 155 -77 149
-251 228 -406 185z"/>
<path d="M291 3868 c-73 -11 -143 -52 -202 -116 -156 -170 -95 -450 119 -550
49 -23 69 -27 147 -26 110 1 162 21 239 94 75 71 110 150 109 250 -1 226 -189
384 -412 348z"/>
<path d="M4709 3870 c-118 -20 -228 -108 -269 -215 -53 -138 -20 -285 86 -385
77 -73 129 -93 239 -94 83 -1 96 2 157 32 223 110 265 407 80 574 -66 59 -111
78 -222 93 -14 1 -46 -1 -71 -5z"/>
<path d="M2312 3663 c-6 -10 -132 -297 -282 -638 -150 -341 -275 -626 -279
-633 -5 -8 -151 94 -457 321 -248 184 -456 337 -462 340 -6 4 -40 -15 -77 -43
-81 -62 -111 -77 -200 -106 -38 -13 -70 -26 -69 -31 1 -4 79 -306 175 -670
l173 -663 1726 0 1726 0 173 662 c96 365 174 667 175 671 1 5 -31 19 -71 31
-76 25 -151 67 -220 123 -26 22 -47 32 -55 27 -7 -4 -215 -158 -462 -341 -247
-183 -451 -332 -452 -330 -2 2 -130 291 -284 642 -155 352 -285 644 -289 648
-5 5 -35 1 -67 -8 -126 -34 -207 -31 -391 12 -14 3 -25 -1 -31 -14z m398
-1163 l0 -200 -150 0 -150 0 0 200 0 200 150 0 150 0 0 -200z m-1411 -314 c51
-87 88 -162 84 -166 -29 -27 -245 -142 -253 -134 -11 12 -179 299 -182 313 -3
13 244 161 253 152 4 -3 48 -78 98 -165z m2873 25 c6 -5 -160 -303 -182 -325
-8 -8 -223 107 -253 134 -5 4 35 82 88 173 l96 166 122 -71 c67 -39 125 -73
129 -77z"/>
<path d="M502 858 l3 -383 2055 0 2055 0 3 383 2 382 -2060 0 -2060 0 2 -382z"/>
</g>
</svg>
