<?xml version="1.0" standalone="no"?>
<!DOCTYPE svg PUBLIC "-//W3C//DTD SVG 20010904//EN"
 "http://www.w3.org/TR/2001/REC-SVG-20010904/DTD/svg10.dtd">
<svg version="1.0" xmlns="http://www.w3.org/2000/svg"
 width="512.000000pt" height="512.000000pt" viewBox="0 0 512.000000 512.000000"
 preserveAspectRatio="xMidYMid meet">

<g transform="translate(0.000000,512.000000) scale(0.100000,-0.100000)"
fill="#000000" stroke="none">
<path d="M2500 5106 c-14 -8 -54 -49 -90 -91 -270 -318 -745 -544 -1320 -629
-58 -9 -193 -20 -299 -26 -107 -6 -201 -15 -210 -19 -9 -5 -27 -21 -41 -36
l-25 -27 -3 -906 c-2 -614 0 -952 8 -1047 50 -616 297 -1155 725 -1580 318
-317 691 -542 1159 -701 71 -24 139 -44 152 -44 14 0 75 16 137 36 628 202
1164 595 1500 1101 171 257 294 549 355 848 55 265 55 259 59 1295 3 910 3
967 -14 999 -34 65 -48 69 -261 81 -230 12 -371 31 -550 71 -458 104 -838 310
-1069 579 -40 47 -86 90 -101 97 -36 16 -81 15 -112 -1z m138 -1553 c19 -14
66 -104 156 -295 l129 -275 251 -37 c340 -51 339 -51 376 -92 33 -38 41 -95
18 -137 -6 -12 -104 -118 -218 -235 l-206 -212 48 -293 c28 -167 47 -309 44
-332 -4 -30 -14 -48 -40 -72 -64 -59 -84 -54 -375 107 -139 77 -258 140 -263
140 -5 0 -122 -63 -262 -140 -273 -151 -300 -160 -360 -121 -38 25 -55 57 -56
101 0 19 21 164 46 322 l47 287 -209 216 c-238 246 -249 263 -215 339 14 32
29 50 53 61 18 8 157 33 308 56 151 22 278 43 281 45 3 1 61 121 129 266 68
145 128 269 134 277 6 8 25 23 41 33 37 24 105 19 143 -9z"/>
<path d="M2469 2968 c-58 -126 -93 -187 -112 -202 -21 -16 -74 -28 -228 -51
l-200 -31 149 -155 c101 -105 152 -166 156 -186 4 -17 -6 -105 -24 -213 -17
-101 -30 -192 -28 -202 3 -15 29 -3 168 74 217 121 202 121 419 0 91 -50 167
-90 169 -88 2 2 -11 93 -29 202 -23 145 -29 206 -23 230 6 23 54 81 153 184
79 83 142 152 140 154 -2 2 -87 16 -189 31 -187 28 -222 38 -251 71 -9 11 -51
95 -94 187 -44 93 -82 170 -85 172 -3 2 -44 -78 -91 -177z"/>
</g>
</svg>
