<?xml version="1.0" standalone="no"?>
<!DOCTYPE svg PUBLIC "-//W3C//DTD SVG 20010904//EN"
 "http://www.w3.org/TR/2001/REC-SVG-20010904/DTD/svg10.dtd">
<svg version="1.0" xmlns="http://www.w3.org/2000/svg"
 width="512.000000pt" height="512.000000pt" viewBox="0 0 512.000000 512.000000"
 preserveAspectRatio="xMidYMid meet">
<metadata>
Created by potrace 1.16, written by Peter Selinger 2001-2019
</metadata>
<g transform="translate(0.000000,512.000000) scale(0.100000,-0.100000)"
fill="#000000" stroke="none">
<path d="M4386 4888 c-49 -90 -93 -166 -98 -169 -5 -3 -90 -21 -188 -39 -99
-19 -180 -37 -180 -40 0 -4 58 -68 128 -144 l128 -138 -23 -185 c-13 -102 -22
-187 -20 -190 3 -2 82 32 176 76 l172 80 171 -80 c94 -44 172 -78 175 -76 2 2
-7 88 -20 190 l-23 185 128 138 c70 76 128 140 128 144 0 4 -81 22 -180 40
-99 18 -183 36 -188 39 -5 3 -49 79 -98 169 -49 89 -91 162 -94 162 -3 0 -45
-73 -94 -162z m135 -260 l34 -62 76 -16 77 -15 -52 -58 -52 -58 9 -70 c5 -39
7 -72 4 -75 -2 -2 -34 9 -70 25 l-67 30 -65 -30 c-35 -16 -67 -29 -71 -29 -6
0 3 99 11 130 3 8 -19 42 -49 75 l-53 60 76 15 76 15 34 63 c19 34 37 62 41
62 4 0 22 -28 41 -62z"/>
<path d="M1812 4939 c-75 -29 -162 -113 -196 -188 -22 -50 -29 -86 -39 -210
l-12 -149 -79 115 c-85 122 -131 168 -205 205 -39 19 -62 23 -151 23 -93 0
-111 -3 -162 -27 -73 -34 -137 -98 -174 -174 -25 -52 -28 -70 -29 -154 0 -82
4 -103 26 -150 31 -65 69 -113 122 -151 26 -19 35 -30 26 -33 -8 -3 -188 -52
-402 -109 -213 -57 -390 -107 -393 -110 -5 -4 152 -614 160 -624 3 -3 2936
784 2941 789 6 6 -154 610 -164 620 -3 3 -177 -40 -386 -96 -209 -57 -393
-106 -408 -110 -27 -6 -27 -6 -13 16 29 44 48 147 41 215 -14 129 -112 258
-230 302 -75 28 -199 28 -273 0z m228 -169 c79 -40 123 -136 101 -219 -21 -76
-68 -112 -248 -195 -155 -71 -163 -73 -163 -52 0 60 22 296 31 336 29 124 166
188 279 130z m-837 -214 c45 -18 72 -50 180 -206 l94 -135 -41 -6 c-23 -4
-109 -12 -193 -19 l-151 -14 -49 25 c-149 77 -148 273 2 352 37 20 115 21 158
3z m1799 -296 c21 -78 37 -145 34 -147 -2 -2 -111 -33 -242 -68 -490 -131
-2340 -626 -2354 -630 -12 -4 -23 27 -54 141 -21 80 -36 148 -33 151 3 3 516
142 1139 309 623 167 1205 323 1293 348 88 24 164 43 169 42 5 -1 27 -67 48
-146z"/>
<path d="M3575 4141 c-87 -40 -135 -120 -135 -223 1 -142 97 -238 240 -238
144 0 240 96 240 240 0 104 -53 187 -142 224 -52 22 -153 20 -203 -3z m155
-171 c11 -11 20 -33 20 -50 0 -17 -9 -39 -20 -50 -11 -11 -33 -20 -50 -20 -17
0 -39 9 -50 20 -11 11 -20 33 -20 50 0 17 9 39 20 50 11 11 33 20 50 20 17 0
39 -9 50 -20z"/>
<path d="M2477 3437 l-79 -143 -149 -29 c-82 -16 -155 -32 -162 -37 -8 -5 13
-33 68 -90 44 -46 95 -99 113 -118 l32 -36 -21 -158 c-11 -87 -18 -160 -16
-162 2 -3 70 27 151 65 l146 70 146 -70 c81 -38 149 -68 151 -65 2 2 -5 75
-16 162 l-21 158 32 36 c18 19 69 72 112 117 48 50 76 86 71 91 -6 5 -78 21
-161 37 l-151 28 -79 144 c-43 78 -81 143 -84 143 -3 0 -40 -65 -83 -143z
m111 -256 c20 -35 29 -41 67 -47 25 -3 45 -9 45 -13 0 -3 -13 -23 -30 -43 -27
-32 -29 -41 -24 -82 4 -25 4 -46 0 -46 -4 0 -25 9 -46 20 l-40 20 -40 -20
c-21 -11 -42 -20 -46 -20 -4 0 -4 21 0 46 5 42 3 50 -24 81 -17 19 -28 38 -25
42 2 5 23 11 45 15 33 5 43 13 62 46 13 22 26 40 29 40 3 0 15 -18 27 -39z"/>
<path d="M4125 3513 c-335 -43 -636 -193 -881 -437 -282 -283 -428 -612 -441
-998 l-6 -158 82 0 c58 0 81 4 81 13 1 94 25 304 45 385 119 490 508 879 998
997 86 21 278 44 375 45 21 0 22 4 22 80 l0 80 -122 -1 c-68 -1 -136 -4 -153
-6z"/>
<path d="M1040 3041 l0 -78 113 -10 c191 -18 325 -76 453 -196 143 -133 213
-290 229 -509 l7 -88 79 0 79 0 0 103 c0 464 -393 857 -857 857 l-103 0 0 -79z"/>
<path d="M4215 3101 c-87 -40 -135 -120 -135 -223 1 -142 97 -238 240 -238
144 0 240 96 240 240 0 104 -53 187 -142 224 -52 22 -153 20 -203 -3z m155
-171 c11 -11 20 -33 20 -50 0 -17 -9 -39 -20 -50 -11 -11 -33 -20 -50 -20 -17
0 -39 9 -50 20 -11 11 -20 33 -20 50 0 17 9 39 20 50 11 11 33 20 50 20 17 0
39 -9 50 -20z"/>
<path d="M1255 2621 c-87 -40 -135 -120 -135 -223 1 -142 97 -238 240 -238
144 0 240 96 240 240 0 104 -53 187 -142 224 -52 22 -153 20 -203 -3z m155
-171 c11 -11 20 -33 20 -50 0 -17 -9 -39 -20 -50 -11 -11 -33 -20 -50 -20 -17
0 -39 9 -50 20 -11 11 -20 33 -20 50 0 17 9 39 20 50 11 11 33 20 50 20 17 0
39 -9 50 -20z"/>
<path d="M4600 2479 c-254 -23 -501 -159 -656 -361 -41 -52 -133 -212 -134
-230 0 -4 32 -24 72 -44 58 -29 74 -34 80 -23 128 218 192 292 323 374 138 86
294 125 508 125 l87 0 0 85 0 85 -97 -1 c-54 -1 -136 -5 -183 -10z"/>
<path d="M3415 2461 c-87 -40 -135 -120 -135 -223 1 -142 97 -238 240 -238
144 0 240 96 240 240 0 104 -53 187 -142 224 -52 22 -153 20 -203 -3z m155
-171 c11 -11 20 -33 20 -50 0 -17 -9 -39 -20 -50 -11 -11 -33 -20 -50 -20 -17
0 -39 9 -50 20 -11 11 -20 33 -20 50 0 17 9 39 20 50 11 11 33 20 50 20 17 0
39 -9 50 -20z"/>
<path d="M240 2323 l0 -80 139 -7 c166 -7 262 -30 369 -86 129 -67 230 -162
305 -286 17 -30 36 -54 41 -54 19 0 136 75 136 86 0 7 -27 53 -60 102 -98 146
-234 262 -390 329 -131 56 -180 66 -367 70 l-173 5 0 -79z"/>
<path d="M1120 880 l0 -800 1440 0 1440 0 0 800 0 800 -1440 0 -1440 0 0 -800z
m1120 0 l0 -640 -480 0 -480 0 0 640 0 640 480 0 480 0 0 -640z m480 0 l0
-640 -160 0 -160 0 0 640 0 640 160 0 160 0 0 -640z m1120 0 l0 -640 -480 0
-480 0 0 640 0 640 480 0 480 0 0 -640z"/>
</g>
</svg>
