<?xml version="1.0" standalone="no"?>
<!DOCTYPE svg PUBLIC "-//W3C//DTD SVG 20010904//EN"
 "http://www.w3.org/TR/2001/REC-SVG-20010904/DTD/svg10.dtd">
<svg version="1.0" xmlns="http://www.w3.org/2000/svg"
 width="512.000000pt" height="512.000000pt" viewBox="0 0 512.000000 512.000000"
 preserveAspectRatio="xMidYMid meet">
<metadata>
Created by potrace 1.16, written by Peter Selinger 2001-2019
</metadata>
<g transform="translate(0.000000,512.000000) scale(0.100000,-0.100000)"
fill="#000000" stroke="none">
<path d="M2338 5104 c-181 -32 -396 -121 -537 -221 -319 -227 -474 -546 -458
-945 l6 -137 -32 -7 c-69 -14 -137 -71 -168 -139 -16 -35 -19 -69 -19 -271 0
-229 0 -230 26 -283 29 -58 84 -104 146 -123 l38 -11 0 -97 c0 -58 6 -117 16
-149 19 -66 73 -127 139 -157 43 -21 66 -24 165 -24 l116 0 52 -103 52 -103 0
-231 0 -231 -647 -337 c-357 -186 -683 -358 -727 -384 -147 -86 -303 -253
-385 -411 -91 -175 -121 -310 -121 -541 0 -146 2 -161 20 -179 20 -20 33 -20
2538 -20 l2519 0 22 24 c23 24 23 27 18 223 -5 225 -14 267 -82 410 -56 116
-144 225 -247 307 -106 85 -85 73 -895 522 l-703 389 0 183 0 182 48 63 c96
124 112 163 222 537 151 515 171 575 221 675 117 236 137 500 57 742 -67 203
-242 440 -447 605 l-74 60 -102 -3 -102 -4 -66 61 c-70 66 -142 106 -228 129
-69 19 -277 18 -381 -1z m394 -193 c51 -24 82 -48 125 -97 32 -37 67 -69 78
-73 11 -4 65 -5 120 -2 l100 6 52 -46 c138 -121 322 -365 363 -482 58 -164 40
-383 -50 -617 -51 -131 -39 -136 -179 80 -68 105 -132 195 -142 200 -34 19
-73 10 -133 -29 -94 -61 -158 -83 -261 -88 -229 -13 -382 80 -535 325 -41 66
-87 128 -102 136 -33 20 -67 20 -95 1 -11 -8 -87 -132 -169 -275 l-147 -261
-36 34 c-46 44 -89 66 -145 73 -43 6 -45 8 -52 48 -12 73 -6 258 11 340 9 44
28 109 41 145 109 289 402 518 764 595 110 23 126 24 230 22 84 -2 103 -7 162
-35z m-533 -1034 c81 -109 239 -216 396 -268 139 -47 340 -28 486 47 l47 23
136 -208 137 -209 -91 -308 c-112 -380 -129 -425 -190 -512 -67 -96 -149 -165
-255 -216 -117 -57 -177 -71 -305 -70 -120 1 -222 29 -322 90 -101 61 -205
172 -257 272 l-12 22 134 0 134 0 18 -40 c21 -47 86 -110 142 -138 174 -89
409 -22 495 141 32 60 32 184 0 244 -33 62 -87 112 -161 147 -60 28 -75 31
-161 31 -82 0 -103 -4 -152 -27 -71 -33 -139 -95 -163 -148 l-18 -40 -165 2
-165 3 -68 203 c-55 164 -66 208 -58 228 5 14 9 75 9 135 l0 109 168 295 c160
282 168 293 182 272 8 -12 35 -48 59 -80z m-607 -275 c22 -22 23 -28 23 -218
l0 -196 -28 -24 c-25 -22 -37 -24 -122 -24 -104 0 -137 10 -154 47 -7 15 -11
93 -11 204 l0 181 30 30 30 30 105 -4 c93 -3 107 -6 127 -26z m80 -742 c21
-63 41 -123 44 -134 6 -17 1 -18 -71 -14 -70 3 -80 6 -101 31 -22 26 -24 37
-24 127 l0 99 43 4 c23 2 48 3 56 3 9 -1 29 -44 53 -116z m981 -124 c18 -7 45
-28 60 -45 93 -111 -79 -240 -229 -172 -109 49 -112 155 -6 211 44 23 128 26
175 6z m-463 -666 c129 -66 279 -96 438 -87 123 6 222 32 323 82 l69 35 0
-122 0 -123 -168 -197 -167 -197 -122 0 -121 -1 -191 198 -191 197 0 148 0
148 43 -29 c23 -16 62 -40 87 -52z m-80 -522 c85 -89 161 -169 168 -179 10
-15 -1 -49 -75 -228 -48 -116 -90 -211 -94 -211 -13 0 -493 604 -483 608 5 2
79 41 164 87 85 46 157 84 160 84 3 1 75 -72 160 -161z m1213 51 c100 -56 183
-102 185 -103 3 -4 -478 -570 -486 -574 -4 -1 -49 97 -99 219 l-92 221 145
169 c80 93 150 169 156 169 5 0 91 -46 191 -101z m-1563 -529 c160 -201 303
-375 316 -387 31 -28 83 -30 114 -5 12 10 45 74 74 145 50 121 53 126 66 103
11 -22 5 -69 -49 -373 -34 -191 -65 -356 -67 -365 -5 -17 -44 -18 -635 -18
l-629 0 0 140 c0 80 -5 149 -11 163 -23 50 -91 61 -136 23 l-28 -24 -3 -151
-4 -151 -300 0 -301 0 6 102 c20 341 199 614 507 773 l90 46 0 -158 c0 -222
12 -253 95 -253 25 0 43 8 60 25 l25 24 0 228 0 228 252 132 c139 73 256 129
259 125 4 -4 138 -171 299 -372z m2180 186 l255 -143 5 -162 c5 -156 6 -164
29 -182 23 -19 74 -25 106 -13 32 13 45 59 45 159 l0 96 78 -42 c198 -108 336
-234 409 -374 54 -105 72 -176 80 -312 l6 -113 -286 0 -286 0 -3 186 -3 186
-28 24 c-39 33 -81 31 -118 -5 l-29 -29 0 -181 0 -181 -659 0 -660 0 -5 43
c-3 23 -17 168 -31 322 -14 154 -28 301 -31 328 -3 27 -2 47 4 47 5 0 28 -46
51 -102 52 -125 71 -148 124 -148 29 0 45 7 65 28 15 15 158 181 317 369 160
189 295 343 300 343 6 -1 125 -65 265 -144z m-1241 -40 c17 -41 31 -80 31 -87
0 -6 -14 -36 -31 -65 l-30 -54 -92 0 -92 0 -43 69 -42 69 27 71 28 71 107 0
106 0 31 -74z m-55 -428 c7 -53 56 -579 56 -602 0 -14 -18 -16 -156 -16 l-156
0 5 23 c3 12 29 150 56 307 28 157 53 295 56 308 5 20 11 22 70 22 l64 0 5
-42z"/>
</g>
</svg>
