<?xml version="1.0" standalone="no"?>
<!DOCTYPE svg PUBLIC "-//W3C//DTD SVG 20010904//EN"
 "http://www.w3.org/TR/2001/REC-SVG-20010904/DTD/svg10.dtd">
<svg version="1.0" xmlns="http://www.w3.org/2000/svg"
 width="512.000000pt" height="512.000000pt" viewBox="0 0 512.000000 512.000000"
 preserveAspectRatio="xMidYMid meet">
<metadata>
Created by potrace 1.16, written by Peter Selinger 2001-2019
</metadata>
<g transform="translate(0.000000,512.000000) scale(0.100000,-0.100000)"
fill="#000000" stroke="none">
<path d="M1965 4695 l-648 -425 -393 0 c-250 0 -412 -4 -446 -11 -75 -16 -192
-72 -252 -121 -71 -58 -121 -120 -162 -203 -68 -138 -65 -41 -62 -1838 l3
-1622 32 -83 c58 -151 160 -265 296 -332 130 -64 -23 -60 2199 -60 1114 0
2034 3 2043 6 44 17 45 35 45 577 l0 514 118 6 c190 9 287 61 351 189 l31 61
0 612 0 611 -26 51 c-34 68 -96 130 -164 162 -48 22 -71 26 -182 29 l-128 4 0
695 0 695 -29 29 -29 29 -274 0 -273 0 -85 273 c-90 288 -109 327 -163 327
-13 0 -181 -60 -373 -134 -192 -73 -352 -132 -356 -130 -3 2 -77 114 -163 249
-87 135 -166 250 -176 255 -54 30 -59 27 -734 -415z m779 23 c64 -100 115
-183 113 -184 -3 -3 -1649 -631 -1822 -696 -44 -16 -75 -25 -70 -20 17 17
1647 1082 1655 1082 4 0 60 -82 124 -182z m1181 -763 c119 -379 219 -693 222
-697 2 -5 -50 -8 -116 -8 l-119 0 -122 365 c-98 295 -126 369 -145 381 -13 8
-53 20 -90 25 -83 11 -131 36 -204 103 -32 29 -70 56 -84 60 -21 5 -313 -100
-1299 -465 l-1273 -471 -95 5 c-109 4 -181 28 -247 80 l-42 34 1692 645 c931
354 1695 642 1698 639 3 -3 104 -316 224 -696z m-2899 128 c-4 -4 -190 -128
-414 -275 -455 -298 -417 -283 -429 -169 -6 67 15 161 53 232 52 95 167 184
272 208 45 11 528 14 518 4z m3414 -414 l0 -420 -52 3 -51 3 -132 418 -132
417 183 0 184 0 0 -421z m-1195 301 c34 -37 119 -85 199 -111 l80 -26 97 -292
97 -291 -1240 0 c-683 0 -1239 2 -1237 4 2 2 382 144 844 315 462 170 905 335
985 365 80 30 148 55 151 55 3 1 14 -8 24 -19z m-2996 -788 c63 -48 112 -71
199 -93 74 -19 126 -19 2034 -19 l1958 0 0 -380 0 -380 -497 0 c-558 0 -581
-3 -712 -67 -53 -26 -97 -59 -147 -108 -112 -111 -169 -234 -180 -389 -17
-231 117 -471 318 -571 141 -69 128 -68 701 -72 l517 -5 0 -459 0 -459 -1972
2 -1973 3 -59 28 c-80 37 -136 85 -184 157 -76 113 -72 35 -72 1530 0 1062 3
1330 13 1324 6 -5 32 -23 56 -42z m4611 -565 c50 -26 90 -90 90 -142 0 -52
-40 -116 -90 -142 -37 -20 -58 -23 -142 -23 l-98 0 0 165 0 165 98 0 c84 0
105 -3 142 -23z m68 -1236 c-27 -53 -59 -79 -114 -91 -54 -13 -1271 -12 -1359
0 -191 28 -334 167 -367 357 -36 212 122 432 341 473 33 6 319 10 735 10 615
1 686 3 731 18 l50 17 3 -369 c2 -367 2 -370 -20 -415z"/>
<path d="M498 2824 c-3 -5 -13 -42 -23 -82 -13 -56 -15 -76 -6 -85 8 -8 72
-13 186 -15 l175 -4 0 91 0 91 -127 0 c-71 0 -144 3 -164 6 -20 4 -39 2 -41
-2z"/>
<path d="M1160 2730 l0 -90 175 0 175 0 0 90 0 90 -175 0 -175 0 0 -90z"/>
<path d="M1840 2730 l0 -90 175 0 175 0 0 90 0 90 -175 0 -175 0 0 -90z"/>
<path d="M2520 2730 l0 -90 180 0 180 0 0 90 0 90 -180 0 -180 0 0 -90z"/>
<path d="M3210 2730 l0 -90 175 0 175 0 0 90 0 90 -175 0 -175 0 0 -90z"/>
<path d="M3890 2730 l0 -90 150 0 150 0 0 90 0 90 -150 0 -150 0 0 -90z"/>
<path d="M498 604 c-11 -19 -40 -155 -35 -161 14 -13 101 -22 230 -23 l137 0
0 90 0 90 -119 0 c-65 0 -138 3 -163 6 -25 4 -48 2 -50 -2z"/>
<path d="M1160 510 l0 -90 175 0 175 0 0 90 0 90 -175 0 -175 0 0 -90z"/>
<path d="M1840 510 l0 -90 175 0 175 0 0 90 0 90 -175 0 -175 0 0 -90z"/>
<path d="M2520 510 l0 -90 180 0 180 0 0 90 0 90 -180 0 -180 0 0 -90z"/>
<path d="M3210 510 l0 -90 175 0 175 0 0 90 0 90 -175 0 -175 0 0 -90z"/>
<path d="M3890 510 l0 -90 150 0 150 0 0 90 0 90 -150 0 -150 0 0 -90z"/>
<path d="M3445 1961 c-127 -35 -198 -125 -199 -251 -1 -154 104 -259 258 -260
84 0 138 23 191 82 50 54 65 95 65 173 0 106 -42 181 -127 227 -54 30 -138 42
-188 29z m94 -186 c47 -24 56 -83 19 -122 -40 -43 -109 -22 -131 40 -9 25 12
66 42 82 33 18 36 18 70 0z"/>
</g>
</svg>
