<?xml version="1.0" standalone="no"?>
<!DOCTYPE svg PUBLIC "-//W3C//DTD SVG 20010904//EN"
 "http://www.w3.org/TR/2001/REC-SVG-20010904/DTD/svg10.dtd">
<svg version="1.0" xmlns="http://www.w3.org/2000/svg"
 width="512.000000pt" height="512.000000pt" viewBox="0 0 512.000000 512.000000"
 preserveAspectRatio="xMidYMid meet">
<metadata>
Created by potrace 1.16, written by Peter Selinger 2001-2019
</metadata>
<g transform="translate(0.000000,512.000000) scale(0.100000,-0.100000)"
fill="#000000" stroke="none">
<path d="M2444 5095 c-139 -69 -270 -246 -326 -442 -21 -71 -23 -99 -23 -313
0 -129 2 -374 5 -544 l5 -309 -262 -198 -263 -199 0 48 c0 102 -42 180 -114
213 -31 14 -65 19 -140 19 -125 0 -174 -20 -217 -88 l-29 -46 0 -262 0 -262
-87 -65 -88 -66 -5 113 c-5 102 -8 117 -33 154 -43 66 -86 82 -217 82 -131 0
-174 -16 -217 -82 l-28 -41 -5 -306 -5 -306 -175 -132 c-96 -72 -185 -141
-197 -152 -23 -19 -23 -22 -23 -299 0 -267 1 -280 20 -297 11 -10 33 -18 48
-18 17 0 440 198 1043 489 l1014 489 6 -155 c4 -85 8 -348 10 -585 l4 -429
-480 -333 c-264 -183 -495 -344 -512 -358 l-33 -26 0 -178 c0 -199 4 -211 71
-211 26 0 1020 219 1065 234 6 3 33 -26 58 -64 84 -123 153 -170 246 -170 93
0 162 47 245 169 l46 68 122 -28 c621 -142 929 -209 958 -209 65 0 69 13 69
213 l0 176 -32 26 c-18 14 -249 175 -513 358 l-480 333 4 429 c2 237 6 500 10
585 l6 156 1015 -490 c580 -279 1027 -489 1042 -489 15 0 37 8 48 18 19 17 20
30 20 297 0 277 0 280 -22 299 -13 11 -102 80 -198 152 l-175 133 -5 305 -5
306 -28 41 c-43 66 -86 82 -217 82 -131 0 -174 -16 -217 -82 -25 -37 -28 -52
-33 -154 l-5 -113 -87 66 -88 65 0 262 0 262 -29 46 c-43 68 -92 88 -217 88
-75 0 -109 -5 -140 -19 -72 -33 -114 -111 -114 -213 l0 -47 -262 198 -263 198
5 309 c3 170 5 415 5 544 0 216 -2 242 -23 314 -58 200 -205 392 -346 451 -57
24 -153 19 -212 -10z m182 -146 c57 -35 143 -140 185 -224 78 -158 76 -2 35
-2150 -20 -1051 -39 -1939 -42 -1973 -14 -148 -78 -301 -167 -398 -66 -72 -88
-72 -154 0 -89 97 -153 250 -167 398 -3 34 -22 922 -42 1973 -34 1773 -35
1915 -21 1990 29 143 124 299 230 376 48 35 96 38 143 8z m-504 -2235 l4 -271
-65 -29 c-36 -16 -69 -30 -73 -32 -4 -2 -8 70 -8 160 0 190 -6 208 -68 208
-31 0 -142 -64 -677 -386 -352 -212 -648 -393 -657 -401 -15 -14 -18 -35 -18
-145 l0 -128 -206 -100 c-114 -55 -209 -100 -211 -100 -2 0 -2 73 -1 162 l3
162 980 741 980 741 7 -156 c3 -85 8 -277 10 -426z m1933 -204 c396 -299 766
-579 823 -622 l102 -79 0 -160 c0 -87 -2 -159 -3 -159 -2 0 -97 45 -210 100
l-207 100 0 128 c0 110 -3 131 -17 145 -10 8 -306 189 -658 401 -536 323 -646
386 -677 386 -62 0 -68 -18 -68 -208 0 -90 -4 -162 -8 -160 -5 2 -38 17 -75
33 l-65 30 4 180 c2 99 7 291 10 427 l6 247 162 -123 c88 -67 485 -367 881
-666z m-2641 688 c12 -17 16 -48 16 -123 l-1 -100 -97 -72 -97 -72 -3 181 c-2
125 1 185 9 194 8 10 35 14 85 14 64 0 75 -3 88 -22z m2465 8 c8 -9 11 -69 9
-194 l-3 -181 -97 72 -97 72 -1 100 c0 136 6 145 104 145 50 0 77 -4 85 -14z
m-3145 -435 c13 -11 16 -39 16 -161 l0 -148 -95 -71 c-52 -39 -97 -71 -100
-71 -3 0 -4 100 -3 222 l3 222 25 14 c31 16 132 11 154 -7z m3820 0 c14 -12
16 -45 16 -232 0 -121 -2 -219 -5 -219 -3 0 -48 32 -101 71 l-95 72 3 151 c3
149 3 151 28 164 31 16 132 11 154 -7z m-2726 -411 l-3 -60 -559 -270 c-308
-149 -561 -270 -563 -270 -2 0 -3 24 -3 53 l1 52 562 338 562 338 3 -61 c2
-33 2 -87 0 -120z m2035 -160 l556 -335 1 -52 c0 -29 -1 -53 -3 -53 -2 0 -255
122 -563 270 l-559 270 -3 121 c-1 66 1 119 6 117 5 -1 259 -154 565 -338z
m-1676 -1748 l20 -72 -36 -10 c-20 -5 -227 -52 -461 -105 -234 -52 -431 -98
-438 -100 -10 -4 -12 12 -10 70 l3 74 445 309 445 308 6 -200 c5 -150 12 -219
26 -274z m1311 105 l362 -251 0 -72 0 -72 -32 8 c-18 5 -226 52 -463 105 -236
53 -435 98 -441 100 -7 2 -5 27 9 77 15 56 20 119 24 275 l5 201 87 -60 c47
-33 249 -173 449 -311z"/>
</g>
</svg>
